<svg width="46" height="38" viewBox="0 0 46 38" fill="none" xmlns="http://www.w3.org/2000/svg">
<path id="Screenshot 2024-12-17 at 18.02.18 1 (Traced)" fill-rule="evenodd" clip-rule="evenodd" d="M21.4661 0.596716C21.2291 0.833702 21.2203 0.885092 21.2426 1.92103C21.2552 2.51374 21.225 3.0392 21.1755 3.08854C21.1259 3.13787 20.6008 3.24888 20.0086 3.33502C17.4119 3.71306 15.2288 4.47472 12.9118 5.81117C11.2389 6.77615 10.332 7.45509 8.96201 8.76835C7.54568 10.126 6.61075 11.31 5.40645 13.2712C5.06061 13.8345 4.39556 15.1528 4.39556 15.2752C4.39556 15.3004 4.28711 15.5581 4.15457 15.848C3.40896 17.4781 2.74567 20.4877 2.72169 22.3495C2.70515 23.6371 2.75654 23.5818 1.46795 23.6996C0.491915 23.7889 0.337253 23.8282 0.174956 24.0286C-0.0801388 24.3436 -0.0554713 24.6868 0.243672 24.9859C0.494558 25.2368 0.506402 25.2385 1.58962 25.175C2.19075 25.1397 4.00401 25.046 5.61916 24.9667C7.2343 24.8875 9.32664 24.7789 10.2688 24.7255C12.9744 24.5722 13.6591 24.5368 15.0163 24.4811C16.351 24.4263 18.8048 24.2962 21.5258 24.1361C22.4142 24.0837 23.7827 24.0178 24.567 23.9895C25.3513 23.9613 26.3424 23.9185 26.7695 23.8946C27.1966 23.8707 28.6031 23.8045 29.8952 23.7476C31.1873 23.6907 32.9493 23.6024 33.8107 23.5514C34.6721 23.5004 35.8835 23.4334 36.5026 23.4025C37.1217 23.3716 37.8926 23.3273 38.2156 23.3042C38.5387 23.2811 39.3536 23.2367 40.0266 23.2054C44.4149 23.0016 45.5977 22.9021 45.7989 22.72C46.0619 22.482 46.0683 21.8816 45.8102 21.6481C45.6521 21.505 45.4529 21.4823 44.5388 21.5034C43.9425 21.5172 43.4225 21.4963 43.3831 21.4569C43.3438 21.4174 43.2376 20.8921 43.1471 20.2893C42.9636 19.0656 42.9276 18.8925 42.7262 18.2634C42.6486 18.0212 42.5337 17.6247 42.471 17.3824C42.4082 17.1402 42.317 16.8655 42.2685 16.772C42.2198 16.6785 42.1801 16.5522 42.1801 16.4914C42.1801 16.2619 41.2488 14.1864 40.7617 13.3302C40.1169 12.1969 39.5495 11.3243 39.2569 11.0163C39.1309 10.8836 38.9115 10.6209 38.7694 10.4324C38.1678 9.63446 36.9438 8.41145 35.9437 7.60888C35.1665 6.98514 33.0212 5.57262 32.3913 5.26996C29.6127 3.93477 27.0152 3.24995 24.2341 3.11957C23.3564 3.07836 22.9368 3.01953 22.8415 2.92428C22.7592 2.84206 22.7019 2.56631 22.6969 2.22967C22.6781 0.962326 22.6502 0.76058 22.4651 0.556093C22.2086 0.272709 21.7723 0.290427 21.4661 0.596716ZM13.6928 7.61818C13.6916 7.68552 13.5044 8.03312 13.2768 8.3908C12.6521 9.37212 11.4437 11.6413 11.4436 11.8336C11.4435 11.8774 11.3333 12.1541 11.1987 12.4483C11.0641 12.7426 10.954 13.0393 10.954 13.1077C10.954 13.176 10.9131 13.2739 10.8631 13.325C10.7311 13.4599 10.1131 15.9035 9.93589 16.9909C9.78377 17.9238 9.72827 18.4794 9.63283 20.0254C9.54806 21.3972 9.29718 21.5872 7.53589 21.614C6.16967 21.6349 5.92045 21.53 5.67329 20.8305C5.48975 20.3111 5.61651 19.6266 6.25728 17.6761C6.78284 16.0765 6.8957 15.7946 7.45219 14.6905C8.33719 12.9347 9.10825 11.7598 10.2787 10.3835C11.8626 8.52099 13.7028 7.03046 13.6928 7.61818ZM27.2523 27.2415C25.6318 27.2806 21.3166 27.478 19.1276 27.613C17.3433 27.7232 16.5484 27.7675 13.8906 27.9055C12.3563 27.9851 10.5723 28.0932 9.9262 28.1456C9.28014 28.1981 7.49615 28.2896 5.96176 28.349C4.42738 28.4086 3.11118 28.477 3.03699 28.5012C2.89818 28.5464 2.90826 28.7061 3.11402 29.7162C3.26604 30.463 3.6989 31.8913 3.90799 32.3362C4.01733 32.5688 4.17747 32.9444 4.26381 33.171C4.70479 34.3274 5.64842 35.9635 6.49838 37.0454C6.75749 37.3752 6.97676 37.6451 6.98566 37.6451C6.99457 37.6451 7.21932 37.5405 7.48518 37.4126C8.8421 36.76 9.48022 36.4756 9.90966 36.3319C11.2996 35.8671 13.6228 35.5663 15.2076 35.6461C16.6816 35.7202 24.4092 35.7179 25.4903 35.6429C26.6211 35.5646 27.2861 35.4308 27.9375 35.1508C28.1528 35.0582 28.8136 34.7845 29.4058 34.5427C29.998 34.3009 30.5266 34.0681 30.5804 34.0253C30.6343 33.9826 31.1938 33.724 31.8238 33.4508C32.4537 33.1776 33.0484 32.9106 33.1453 32.8574C33.3558 32.7417 34.1206 32.3948 35.9642 31.5787C36.718 31.245 37.5549 30.8682 37.8241 30.7412C38.0933 30.6142 38.5778 30.3929 38.9009 30.2495C39.5464 29.9629 40.3375 29.5969 41.5624 29.0182C42.0034 28.8099 42.3916 28.6395 42.4252 28.6395C42.5646 28.6395 43.5374 28.1525 43.5998 28.0516C43.6371 27.9913 43.5861 27.8505 43.4867 27.7388C43.0455 27.2434 42.1856 27.1433 41.0477 27.4548C40.0669 27.7235 38.7366 28.1347 38.5093 28.2396C38.4016 28.2892 37.9611 28.443 37.5304 28.5811C36.3337 28.9651 33.7049 29.8844 33.3465 30.0445C33.1711 30.1228 32.8074 30.2612 32.5382 30.3521C32.269 30.443 31.6082 30.6706 31.0699 30.8581C29.9959 31.232 26.6929 31.9388 25.5799 32.0329C24.7195 32.1057 24.4144 32.0368 24.2092 31.7236C23.8544 31.1821 24.1202 30.4338 24.7541 30.1892C25.0942 30.058 26.4941 29.8181 26.9324 29.8159C27.2964 29.8141 29.5315 29.4572 30.92 29.179C31.9009 28.9827 32.6325 28.6051 32.8271 28.1951C33.0174 27.7941 33.0165 27.7114 32.8183 27.409L32.6581 27.1644L30.3956 27.1922C29.1514 27.2076 27.7368 27.2297 27.2523 27.2415Z" fill="#EF4444"/>
</svg>
